ffmpeg started on 2025-06-09 at 18:04:23
Report written to "D:\Convert\FFMetrics\reports\ssim_report-6.txt"
Log level: 32
Command line:
ffmpeg -hide_banner -nostdin -i "G:\\\xc0\xed\xe8\xec\xe5\\\xce\xed\xe3\xee\xe8\xed\xe3\xe8\\!_30_\xc2\xe5\xf1\xed\xe0_2023\\\xd1\xeb\xe8\xf8\xea\xee\xec \xec\xe8\xeb\xfb\xe9 \xea\xf0\xe8\xe7\xe8\xf1\\Kawaisugi_Crisis_[06]_[AniLibria_TV]_[WEBRip_1080p]_HEVC.mkv" -i "G:\\\xc0\xed\xe8\xec\xe5\\\xce\xed\xe3\xee\xe8\xed\xe3\xe8\\!_30_\xc2\xe5\xf1\xed\xe0_2023\\\xd1\xeb\xe8\xf8\xea\xee\xec \xec\xe8\xeb\xfb\xe9 \xea\xf0\xe8\xe7\xe8\xf1\\Kawaisugi_Crisis_[06]_[AniLibria_TV]_[WEBRip_1080p].mkv" -lavfi "[0:v]settb=AVTB,setpts=PTS-STARTPTS,format=pix_fmts=yuv420p10,fps=24000/1001,scale=1920:1080:flags=bicubic[main];[1:v]settb=AVTB,setpts=PTS-STARTPTS,format=pix_fmts=yuv420p,fps=24000/1001,scale=1920:1080:flags=bicubic[ref];[main][ref]ssim=eof_action=endall:stats_file='D\\:/Convert/FFMetrics/logs/ssim_logfile-6.txt'" -f null -
Input #0, matroska,webm, from 'G:\Аниме\Онгоинги\!_30_Весна_2023\Слишком милый кризис\Kawaisugi_Crisis_[06]_[AniLibria_TV]_[WEBRip_1080p]_HEVC.mkv':
  Metadata:
    ENCODER         : Lavf61.7.100
  Duration: 00:23:42.51, start: -0.021000, bitrate: 1010 kb/s
  Stream #0:0(jpn): Video: hevc (Main 10), yuv420p10le(pc, bt709, progressive), 1920x1080 [SAR 1:1 DAR 16:9], 23.98 fps, 23.98 tbr, 1k tbn (default) (forced)
      Metadata:
        title           : Original
        ENCODER         : Lavc61.19.100 libx265
        BPS             : 813503
        DURATION        : 00:23:42.504708333
        NUMBER_OF_FRAMES: 34106
        NUMBER_OF_BYTES : 144651566
        _STATISTICS_WRITING_APP: mkvpropedit v66.0.0 ('Josie') 64-bit
        _STATISTICS_WRITING_DATE_UTC: 2025-06-09 13:31:00
        _STATISTICS_TAGS: BPS DURATION NUMBER_OF_FRAMES NUMBER_OF_BYTES
  Stream #0:1(rus): Audio: aac (LC), 48000 Hz, stereo, fltp (default) (forced)
      Metadata:
        title           : AniLibria.TV
        ENCODER         : Lavc61.19.100 aac
        BPS             : 193106
        DURATION        : 00:23:42.399000000
        NUMBER_OF_FRAMES: 66676
        NUMBER_OF_BYTES : 34334287
        _STATISTICS_WRITING_APP: mkvpropedit v66.0.0 ('Josie') 64-bit
        _STATISTICS_WRITING_DATE_UTC: 2025-06-09 13:31:00
        _STATISTICS_TAGS: BPS DURATION NUMBER_OF_FRAMES NUMBER_OF_BYTES
  Stream #0:2(rus): Subtitle: ass (ssa) (default) (forced)
      Metadata:
        title           : Надписи
        BPS             : 0
        DURATION        : 00:00:00.000000000
        NUMBER_OF_FRAMES: 0
        NUMBER_OF_BYTES : 0
        _STATISTICS_WRITING_APP: mkvpropedit v66.0.0 ('Josie') 64-bit
        _STATISTICS_WRITING_DATE_UTC: 2025-06-09 13:31:00
        _STATISTICS_TAGS: BPS DURATION NUMBER_OF_FRAMES NUMBER_OF_BYTES
  Stream #0:3(rus): Subtitle: ass (ssa)
      Metadata:
        title           : Субтитры
        BPS             : 175
        DURATION        : 00:23:38.500000000
        NUMBER_OF_FRAMES: 370
        NUMBER_OF_BYTES : 31088
        _STATISTICS_WRITING_APP: mkvpropedit v66.0.0 ('Josie') 64-bit
        _STATISTICS_WRITING_DATE_UTC: 2025-06-09 13:31:00
        _STATISTICS_TAGS: BPS DURATION NUMBER_OF_FRAMES NUMBER_OF_BYTES
Input #1, matroska,webm, from 'G:\Аниме\Онгоинги\!_30_Весна_2023\Слишком милый кризис\Kawaisugi_Crisis_[06]_[AniLibria_TV]_[WEBRip_1080p].mkv':
  Metadata:
    encoder         : libebml v1.4.2 + libmatroska v1.6.4
    creation_time   : 2025-01-14T16:54:01.000000Z
  Duration: 00:23:42.51, start: 0.000000, bitrate: 1900 kb/s
  Stream #1:0(jpn): Video: h264 (High), yuvj420p(pc, bt709, progressive), 1920x1080 [SAR 1:1 DAR 16:9], 23.98 fps, 23.98 tbr, 1k tbn (default) (forced)
      Metadata:
        title           : Original
        BPS             : 1699725
        DURATION        : 00:23:42.505000000
        NUMBER_OF_FRAMES: 34106
        NUMBER_OF_BYTES : 302233479
        _STATISTICS_WRITING_APP: mkvmerge v66.0.0 ('Josie') 64-bit
        _STATISTICS_WRITING_DATE_UTC: 2025-01-14 16:54:01
        _STATISTICS_TAGS: BPS DURATION NUMBER_OF_FRAMES NUMBER_OF_BYTES
  Stream #1:1(rus): Audio: aac (LC), 48000 Hz, stereo, fltp (default) (forced)
      Metadata:
        title           : AniLibria.TV
        BPS             : 192088
        DURATION        : 00:23:42.399000000
        NUMBER_OF_FRAMES: 66675
        NUMBER_OF_BYTES : 34153247
        _STATISTICS_WRITING_APP: mkvmerge v66.0.0 ('Josie') 64-bit
        _STATISTICS_WRITING_DATE_UTC: 2025-01-14 16:54:01
        _STATISTICS_TAGS: BPS DURATION NUMBER_OF_FRAMES NUMBER_OF_BYTES
  Stream #1:2(rus): Subtitle: ass (ssa) (default) (forced)
      Metadata:
        title           : Надписи
        BPS             : 0
        DURATION        : 00:00:00.000000000
        NUMBER_OF_FRAMES: 0
        NUMBER_OF_BYTES : 0
        _STATISTICS_WRITING_APP: mkvmerge v66.0.0 ('Josie') 64-bit
        _STATISTICS_WRITING_DATE_UTC: 2025-01-14 16:54:01
        _STATISTICS_TAGS: BPS DURATION NUMBER_OF_FRAMES NUMBER_OF_BYTES
  Stream #1:3(rus): Subtitle: ass (ssa)
      Metadata:
        title           : Субтитры
        BPS             : 175
        DURATION        : 00:23:38.500000000
        NUMBER_OF_FRAMES: 370
        NUMBER_OF_BYTES : 31088
        _STATISTICS_WRITING_APP: mkvmerge v66.0.0 ('Josie') 64-bit
        _STATISTICS_WRITING_DATE_UTC: 2025-01-14 16:54:01
        _STATISTICS_TAGS: BPS DURATION NUMBER_OF_FRAMES NUMBER_OF_BYTES
  Stream #1:4: Attachment: ttf
      Metadata:
        filename        : ARIAL.TTF
        mimetype        : application/x-truetype-font
  Stream #1:5: Attachment: ttf
      Metadata:
        filename        : tt0142m.ttf
        mimetype        : application/x-truetype-font
Stream mapping:
  Stream #0:0 (hevc) -> settb:default
  Stream #1:0 (h264) -> settb:default
  ssim:default -> Stream #0:0 (wrapped_avframe)
  Stream #0:1 -> #0:1 (aac (native) -> pcm_s16le (native))
[swscaler @ 0000020041dd4980] deprecated pixel format used, make sure you did set range correctly
Output #0, null, to 'pipe:':
  Metadata:
    encoder         : Lavf61.7.100
  Stream #0:0: Video: wrapped_avframe, yuv420p10le(pc, bt709, progressive), 1920x1080 [SAR 1:1 DAR 16:9], q=2-31, 200 kb/s, 23.98 fps, 23.98 tbn
      Metadata:
        encoder         : Lavc61.19.100 wrapped_avframe
  Stream #0:1(rus): Audio: pcm_s16le, 48000 Hz, stereo, s16, 1536 kb/s (default) (forced)
      Metadata:
        title           : AniLibria.TV
        _STATISTICS_TAGS: BPS DURATION NUMBER_OF_FRAMES NUMBER_OF_BYTES
        BPS             : 193106
        DURATION        : 00:23:42.399000000
        NUMBER_OF_FRAMES: 66676
        NUMBER_OF_BYTES : 34334287
        _STATISTICS_WRITING_APP: mkvpropedit v66.0.0 ('Josie') 64-bit
        _STATISTICS_WRITING_DATE_UTC: 2025-06-09 13:31:00
        encoder         : Lavc61.19.100 pcm_s16le
frame=  162 fps=0.0 q=-0.0 size=N/A time=00:00:06.75 bitrate=N/A speed=13.1x    frame=  366 fps=352 q=-0.0 size=N/A time=00:00:15.26 bitrate=N/A speed=14.7x    frame=  609 fps=394 q=-0.0 size=N/A time=00:00:25.40 bitrate=N/A speed=16.5x    frame=  839 fps=405 q=-0.0 size=N/A time=00:00:34.99 bitrate=N/A speed=16.9x    frame=  982 fps=381 q=-0.0 size=N/A time=00:00:40.95 bitrate=N/A speed=15.9x    frame= 1161 fps=374 q=-0.0 size=N/A time=00:00:48.42 bitrate=N/A speed=15.6x    frame= 1395 fps=386 q=-0.0 size=N/A time=00:00:58.18 bitrate=N/A speed=16.1x    frame= 1625 fps=394 q=-0.0 size=N/A time=00:01:07.77 bitrate=N/A speed=16.5x    frame= 1887 fps=406 q=-0.0 size=N/A time=00:01:18.70 bitrate=N/A speed=16.9x    frame= 2141 fps=415 q=-0.0 size=N/A time=00:01:29.29 bitrate=N/A speed=17.3x    frame= 2400 fps=423 q=-0.0 size=N/A time=00:01:40.10 bitrate=N/A speed=17.7x    frame= 2653 fps=428 q=-0.0 size=N/A time=00:01:50.65 bitrate=N/A speed=17.9x    frame= 2899 fps=432 q=-0.0 size=N/A time=00:02:00.91 bitrate=N/A speed=  18x    frame= 3134 fps=434 q=-0.0 size=N/A time=00:02:10.71 bitrate=N/A speed=18.1x    frame= 3376 fps=436 q=-0.0 size=N/A time=00:02:20.80 bitrate=N/A speed=18.2x    frame= 3617 fps=438 q=-0.0 size=N/A time=00:02:30.85 bitrate=N/A speed=18.3x    frame= 3826 fps=436 q=-0.0 size=N/A time=00:02:39.57 bitrate=N/A speed=18.2x    frame= 4069 fps=438 q=-0.0 size=N/A time=00:02:49.71 bitrate=N/A speed=18.3x    frame= 4302 fps=439 q=-0.0 size=N/A time=00:02:59.42 bitrate=N/A speed=18.3x    frame= 4516 fps=438 q=-0.0 size=N/A time=00:03:08.35 bitrate=N/A speed=18.3x    frame= 4753 fps=439 q=-0.0 size=N/A time=00:03:18.23 bitrate=N/A speed=18.3x    frame= 4998 fps=440 q=-0.0 size=N/A time=00:03:28.45 bitrate=N/A speed=18.4x    frame= 5239 fps=442 q=-0.0 size=N/A time=00:03:38.50 bitrate=N/A speed=18.4x    frame= 5489 fps=443 q=-0.0 size=N/A time=00:03:48.93 bitrate=N/A speed=18.5x    frame= 5605 fps=435 q=-0.0 size=N/A time=00:03:53.77 bitrate=N/A speed=18.1x    frame= 5819 fps=434 q=-0.0 size=N/A time=00:04:02.70 bitrate=N/A speed=18.1x    frame= 6061 fps=435 q=-0.0 size=N/A time=00:04:12.79 bitrate=N/A speed=18.1x    frame= 6320 fps=438 q=-0.0 size=N/A time=00:04:23.59 bitrate=N/A speed=18.3x    frame= 6554 fps=438 q=-0.0 size=N/A time=00:04:33.35 bitrate=N/A speed=18.3x    frame= 6820 fps=441 q=-0.0 size=N/A time=00:04:44.45 bitrate=N/A speed=18.4x    frame= 7063 fps=442 q=-0.0 size=N/A time=00:04:54.58 bitrate=N/A speed=18.4x    frame= 7305 fps=443 q=-0.0 size=N/A time=00:05:04.67 bitrate=N/A speed=18.5x    frame= 7529 fps=443 q=-0.0 size=N/A time=00:05:14.02 bitrate=N/A speed=18.5x    frame= 7771 fps=443 q=-0.0 size=N/A time=00:05:24.11 bitrate=N/A speed=18.5x    frame= 8031 fps=445 q=-0.0 size=N/A time=00:05:34.95 bitrate=N/A speed=18.6x    frame= 8251 fps=445 q=-0.0 size=N/A time=00:05:44.13 bitrate=N/A speed=18.5x    frame= 8503 fps=446 q=-0.0 size=N/A time=00:05:54.64 bitrate=N/A speed=18.6x    frame= 8743 fps=446 q=-0.0 size=N/A time=00:06:04.65 bitrate=N/A speed=18.6x    frame= 8997 fps=447 q=-0.0 size=N/A time=00:06:15.24 bitrate=N/A speed=18.7x    frame= 9240 fps=448 q=-0.0 size=N/A time=00:06:25.38 bitrate=N/A speed=18.7x    frame= 9502 fps=449 q=-0.0 size=N/A time=00:06:36.31 bitrate=N/A speed=18.7x    frame= 9757 fps=450 q=-0.0 size=N/A time=00:06:46.94 bitrate=N/A speed=18.8x    frame= 9998 fps=451 q=-0.0 size=N/A time=00:06:56.99 bitrate=N/A speed=18.8x    frame=10250 fps=452 q=-0.0 size=N/A time=00:07:07.51 bitrate=N/A speed=18.8x    frame=10505 fps=453 q=-0.0 size=N/A time=00:07:18.14 bitrate=N/A speed=18.9x    frame=10736 fps=453 q=-0.0 size=N/A time=00:07:27.78 bitrate=N/A speed=18.9x    frame=10963 fps=452 q=-0.0 size=N/A time=00:07:37.24 bitrate=N/A speed=18.9x    frame=11215 fps=453 q=-0.0 size=N/A time=00:07:47.75 bitrate=N/A speed=18.9x    frame=11438 fps=453 q=-0.0 size=N/A time=00:07:57.05 bitrate=N/A speed=18.9x    frame=11686 fps=453 q=-0.0 size=N/A time=00:08:07.40 bitrate=N/A speed=18.9x    frame=11914 fps=453 q=-0.0 size=N/A time=00:08:16.91 bitrate=N/A speed=18.9x    frame=12154 fps=453 q=-0.0 size=N/A time=00:08:26.92 bitrate=N/A speed=18.9x    frame=12372 fps=453 q=-0.0 size=N/A time=00:08:36.01 bitrate=N/A speed=18.9x    frame=12604 fps=453 q=-0.0 size=N/A time=00:08:45.69 bitrate=N/A speed=18.9x    frame=12839 fps=453 q=-0.0 size=N/A time=00:08:55.49 bitrate=N/A speed=18.9x    frame=13056 fps=452 q=-0.0 size=N/A time=00:09:04.54 bitrate=N/A speed=18.9x    frame=13286 fps=452 q=-0.0 size=N/A time=00:09:14.13 bitrate=N/A speed=18.9x    frame=13499 fps=451 q=-0.0 size=N/A time=00:09:23.02 bitrate=N/A speed=18.8x    frame=13733 fps=451 q=-0.0 size=N/A time=00:09:32.78 bitrate=N/A speed=18.8x    frame=13987 fps=452 q=-0.0 size=N/A time=00:09:43.37 bitrate=N/A speed=18.9x    frame=14200 fps=451 q=-0.0 size=N/A time=00:09:52.25 bitrate=N/A speed=18.8x    frame=14414 fps=451 q=-0.0 size=N/A time=00:10:01.18 bitrate=N/A speed=18.8x    frame=14661 fps=451 q=-0.0 size=N/A time=00:10:11.48 bitrate=N/A speed=18.8x    frame=14907 fps=452 q=-0.0 size=N/A time=00:10:21.74 bitrate=N/A speed=18.8x    frame=15157 fps=452 q=-0.0 size=N/A time=00:10:32.17 bitrate=N/A speed=18.9x    frame=15415 fps=453 q=-0.0 size=N/A time=00:10:42.93 bitrate=N/A speed=18.9x    frame=15666 fps=453 q=-0.0 size=N/A time=00:10:53.40 bitrate=N/A speed=18.9x    frame=15900 fps=454 q=-0.0 size=N/A time=00:11:03.16 bitrate=N/A speed=18.9x    frame=16146 fps=454 q=-0.0 size=N/A time=00:11:13.42 bitrate=N/A speed=18.9x    frame=16402 fps=454 q=-0.0 size=N/A time=00:11:24.10 bitrate=N/A speed=  19x    frame=16653 fps=455 q=-0.0 size=N/A time=00:11:34.56 bitrate=N/A speed=  19x    frame=16908 fps=455 q=-0.0 size=N/A time=00:11:45.20 bitrate=N/A speed=  19x    frame=17142 fps=455 q=-0.0 size=N/A time=00:11:54.96 bitrate=N/A speed=  19x    frame=17386 fps=456 q=-0.0 size=N/A time=00:12:05.14 bitrate=N/A speed=  19x    frame=17591 fps=455 q=-0.0 size=N/A time=00:12:13.69 bitrate=N/A speed=  19x    frame=17860 fps=456 q=-0.0 size=N/A time=00:12:24.91 bitrate=N/A speed=  19x    frame=18103 fps=456 q=-0.0 size=N/A time=00:12:35.04 bitrate=N/A speed=  19x    frame=18341 fps=456 q=-0.0 size=N/A time=00:12:44.97 bitrate=N/A speed=  19x    frame=18545 fps=455 q=-0.0 size=N/A time=00:12:53.48 bitrate=N/A speed=  19x    frame=18756 fps=455 q=-0.0 size=N/A time=00:13:02.28 bitrate=N/A speed=  19x    frame=18969 fps=454 q=-0.0 size=N/A time=00:13:11.16 bitrate=N/A speed=18.9x    frame=19223 fps=455 q=-0.0 size=N/A time=00:13:21.75 bitrate=N/A speed=  19x    frame=19430 fps=454 q=-0.0 size=N/A time=00:13:30.39 bitrate=N/A speed=18.9x    frame=19680 fps=454 q=-0.0 size=N/A time=00:13:40.82 bitrate=N/A speed=18.9x    frame=19875 fps=453 q=-0.0 size=N/A time=00:13:48.95 bitrate=N/A speed=18.9x    frame=20111 fps=453 q=-0.0 size=N/A time=00:13:58.79 bitrate=N/A speed=18.9x    frame=20367 fps=454 q=-0.0 size=N/A time=00:14:09.47 bitrate=N/A speed=18.9x    frame=20575 fps=453 q=-0.0 size=N/A time=00:14:18.14 bitrate=N/A speed=18.9x    frame=20821 fps=454 q=-0.0 size=N/A time=00:14:28.40 bitrate=N/A speed=18.9x    frame=21067 fps=454 q=-0.0 size=N/A time=00:14:38.66 bitrate=N/A speed=18.9x    frame=21291 fps=454 q=-0.0 size=N/A time=00:14:48.01 bitrate=N/A speed=18.9x    frame=21500 fps=453 q=-0.0 size=N/A time=00:14:56.72 bitrate=N/A speed=18.9x    frame=21711 fps=453 q=-0.0 size=N/A time=00:15:05.52 bitrate=N/A speed=18.9x    frame=21925 fps=452 q=-0.0 size=N/A time=00:15:14.45 bitrate=N/A speed=18.9x    frame=22143 fps=452 q=-0.0 size=N/A time=00:15:23.54 bitrate=N/A speed=18.8x    frame=22363 fps=452 q=-0.0 size=N/A time=00:15:32.72 bitrate=N/A speed=18.8x    frame=22587 fps=451 q=-0.0 size=N/A time=00:15:42.06 bitrate=N/A speed=18.8x    frame=22824 fps=452 q=-0.0 size=N/A time=00:15:51.95 bitrate=N/A speed=18.8x    frame=23060 fps=452 q=-0.0 size=N/A time=00:16:01.79 bitrate=N/A speed=18.8x    frame=23291 fps=451 q=-0.0 size=N/A time=00:16:11.42 bitrate=N/A speed=18.8x    frame=23515 fps=451 q=-0.0 size=N/A time=00:16:20.77 bitrate=N/A speed=18.8x    frame=23727 fps=451 q=-0.0 size=N/A time=00:16:29.61 bitrate=N/A speed=18.8x    frame=23969 fps=451 q=-0.0 size=N/A time=00:16:39.70 bitrate=N/A speed=18.8x    frame=24219 fps=451 q=-0.0 size=N/A time=00:16:50.13 bitrate=N/A speed=18.8x    frame=24473 fps=452 q=-0.0 size=N/A time=00:17:00.72 bitrate=N/A speed=18.8x    frame=24724 fps=452 q=-0.0 size=N/A time=00:17:11.19 bitrate=N/A speed=18.9x    frame=24968 fps=452 q=-0.0 size=N/A time=00:17:21.37 bitrate=N/A speed=18.9x    frame=25216 fps=453 q=-0.0 size=N/A time=00:17:31.71 bitrate=N/A speed=18.9x    frame=25460 fps=453 q=-0.0 size=N/A time=00:17:41.89 bitrate=N/A speed=18.9x    frame=25715 fps=453 q=-0.0 size=N/A time=00:17:52.52 bitrate=N/A speed=18.9x    frame=25955 fps=453 q=-0.0 size=N/A time=00:18:02.53 bitrate=N/A speed=18.9x    frame=26184 fps=453 q=-0.0 size=N/A time=00:18:12.09 bitrate=N/A speed=18.9x    frame=26412 fps=453 q=-0.0 size=N/A time=00:18:21.60 bitrate=N/A speed=18.9x    frame=26641 fps=453 q=-0.0 size=N/A time=00:18:31.15 bitrate=N/A speed=18.9x    frame=26865 fps=453 q=-0.0 size=N/A time=00:18:40.49 bitrate=N/A speed=18.9x    frame=27087 fps=453 q=-0.0 size=N/A time=00:18:49.75 bitrate=N/A speed=18.9x    frame=27319 fps=453 q=-0.0 size=N/A time=00:18:59.42 bitrate=N/A speed=18.9x    frame=27566 fps=453 q=-0.0 size=N/A time=00:19:09.73 bitrate=N/A speed=18.9x    frame=27796 fps=453 q=-0.0 size=N/A time=00:19:19.32 bitrate=N/A speed=18.9x    frame=28006 fps=452 q=-0.0 size=N/A time=00:19:28.08 bitrate=N/A speed=18.9x    frame=28205 fps=452 q=-0.0 size=N/A time=00:19:36.38 bitrate=N/A speed=18.8x    frame=28424 fps=452 q=-0.0 size=N/A time=00:19:45.51 bitrate=N/A speed=18.8x    frame=28672 fps=452 q=-0.0 size=N/A time=00:19:55.86 bitrate=N/A speed=18.8x    frame=28856 fps=451 q=-0.0 size=N/A time=00:20:03.53 bitrate=N/A speed=18.8x    frame=29086 fps=451 q=-0.0 size=N/A time=00:20:13.12 bitrate=N/A speed=18.8x    frame=29319 fps=451 q=-0.0 size=N/A time=00:20:22.84 bitrate=N/A speed=18.8x    frame=29545 fps=451 q=-0.0 size=N/A time=00:20:32.27 bitrate=N/A speed=18.8x    frame=29754 fps=451 q=-0.0 size=N/A time=00:20:40.98 bitrate=N/A speed=18.8x    frame=29969 fps=450 q=-0.0 size=N/A time=00:20:49.95 bitrate=N/A speed=18.8x    frame=30197 fps=450 q=-0.0 size=N/A time=00:20:59.46 bitrate=N/A speed=18.8x    frame=30419 fps=450 q=-0.0 size=N/A time=00:21:08.72 bitrate=N/A speed=18.8x    frame=30649 fps=450 q=-0.0 size=N/A time=00:21:18.31 bitrate=N/A speed=18.8x    frame=30887 fps=450 q=-0.0 size=N/A time=00:21:28.24 bitrate=N/A speed=18.8x    frame=31126 fps=450 q=-0.0 size=N/A time=00:21:38.21 bitrate=N/A speed=18.8x    frame=31347 fps=450 q=-0.0 size=N/A time=00:21:47.43 bitrate=N/A speed=18.8x    frame=31584 fps=450 q=-0.0 size=N/A time=00:21:57.31 bitrate=N/A speed=18.8x    frame=31750 fps=449 q=-0.0 size=N/A time=00:22:04.23 bitrate=N/A speed=18.7x    frame=31968 fps=449 q=-0.0 size=N/A time=00:22:13.33 bitrate=N/A speed=18.7x    frame=32118 fps=448 q=-0.0 size=N/A time=00:22:19.58 bitrate=N/A speed=18.7x    frame=32269 fps=447 q=-0.0 size=N/A time=00:22:25.88 bitrate=N/A speed=18.6x    frame=32421 fps=446 q=-0.0 size=N/A time=00:22:32.22 bitrate=N/A speed=18.6x    frame=32566 fps=444 q=-0.0 size=N/A time=00:22:38.27 bitrate=N/A speed=18.5x    frame=32714 fps=443 q=-0.0 size=N/A time=00:22:44.44 bitrate=N/A speed=18.5x    frame=32872 fps=442 q=-0.0 size=N/A time=00:22:51.03 bitrate=N/A speed=18.5x    frame=33028 fps=441 q=-0.0 size=N/A time=00:22:57.54 bitrate=N/A speed=18.4x    frame=33177 fps=440 q=-0.0 size=N/A time=00:23:03.75 bitrate=N/A speed=18.4x    frame=33368 fps=440 q=-0.0 size=N/A time=00:23:11.72 bitrate=N/A speed=18.4x    frame=33587 fps=440 q=-0.0 size=N/A time=00:23:20.85 bitrate=N/A speed=18.3x    frame=33805 fps=440 q=-0.0 size=N/A time=00:23:29.95 bitrate=N/A speed=18.3x    frame=34026 fps=440 q=-0.0 size=N/A time=00:23:39.16 bitrate=N/A speed=18.3x    [Parsed_ssim_10 @ 000002002d84e8c0] SSIM Y:0.994719 (22.772720) U:0.995674 (23.639283) V:0.995722 (23.687222) All:0.995045 (23.049740)
[out#0/null @ 000002002ac83780] video:14654KiB audio:266704KiB subtitle:0KiB other streams:0KiB global headers:0KiB muxing overhead: unknown
frame=34105 fps=440 q=-0.0 Lsize=N/A time=00:23:42.42 bitrate=N/A speed=18.3x    
